<?xml version="1.0" encoding="utf-8" standalone="no"?>
<!DOCTYPE svg PUBLIC "-//W3C//DTD SVG 1.1//EN" "http://www.w3.org/Graphics/SVG/1.1/DTD/svg11.dtd">

<svg width="297mm" height="420mm" viewBox="0 0 297 420" xmlns="http://www.w3.org/2000/svg" xmlns:xlink="http://www.w3.org/1999/xlink" version="1.1" style="stroke:black; fill:none; stroke-width:0.5pt; stroke-linejoin:round; text-anchor:middle" font-family="Helvetica, Arial, FreeSans, Sans, sans, sans-serif">

<g>

<rect x="-1.5" y="35.0" width="50.0" height="50.0" fill="black" stroke="none" />

<rect x="-1.5" y="135.0" width="50.0" height="50.0" fill="black" stroke="none" />

<rect x="-1.5" y="235.0" width="50.0" height="50.0" fill="black" stroke="none" />

<rect x="-1.5" y="335.0" width="50.0" height="50.0" fill="black" stroke="none" />

<rect x="48.5" y="85.0" width="50.0" height="50.0" fill="black" stroke="none" />

<rect x="48.5" y="185.0" width="50.0" height="50.0" fill="black" stroke="none" />

<rect x="48.5" y="285.0" width="50.0" height="50.0" fill="black" stroke="none" />

<rect x="98.5" y="35.0" width="50.0" height="50.0" fill="black" stroke="none" />

<rect x="98.5" y="135.0" width="50.0" height="50.0" fill="black" stroke="none" />

<rect x="98.5" y="235.0" width="50.0" height="50.0" fill="black" stroke="none" />

<rect x="98.5" y="335.0" width="50.0" height="50.0" fill="black" stroke="none" />

<rect x="148.5" y="85.0" width="50.0" height="50.0" fill="black" stroke="none" />

<rect x="148.5" y="185.0" width="50.0" height="50.0" fill="black" stroke="none" />

<rect x="148.5" y="285.0" width="50.0" height="50.0" fill="black" stroke="none" />

<rect x="198.5" y="35.0" width="50.0" height="50.0" fill="black" stroke="none" />

<rect x="198.5" y="135.0" width="50.0" height="50.0" fill="black" stroke="none" />

<rect x="198.5" y="235.0" width="50.0" height="50.0" fill="black" stroke="none" />

<rect x="198.5" y="335.0" width="50.0" height="50.0" fill="black" stroke="none" />

<rect x="248.5" y="85.0" width="50.0" height="50.0" fill="black" stroke="none" />

<rect x="248.5" y="185.0" width="50.0" height="50.0" fill="black" stroke="none" />

<rect x="248.5" y="285.0" width="50.0" height="50.0" fill="black" stroke="none" />

</g>

</svg>

